<?xml version="1.0" encoding="UTF-8"?>
<svg id="Aevus_Icon" xmlns="http://www.w3.org/2000/svg" version="1.1" viewBox="190 140 590 440">
  <!-- AEVUS ICON (mark only). Canonical geometry. Teal #06B6D4 "A" + Indigo #6366F1 crossbar.
       Single source of truth for favicon, PWA icons, compact UI marks. See docs/BRAND_LOGO_LOCKIN.md. -->
  <path fill="#06b6d4" d="M487.44,154.66c10.46-4.08,24.78-1.69,36.06-2.31,4.74-.26,12.18-.14,16.76.47,3.7.48,7.31,1.49,10.72,2.99,5.33,2.39,9.97,6.09,13.49,10.74,3.82,4.97,12.72,23.25,15.96,29.94,4.54,9.37,11.98,22.39,15.89,31.45,3.46,6.57,6.9,13.35,10.19,20.02,22.69,45.91,46.99,91.36,69.13,137.52l-54.16.03c-47.07.05-40.06,1.97-61.26-40.55l-24.62-49.05c-5.47-10.93-11.17-22.96-16.98-33.55l-99.6,199.06-24,48.21c-4.73,9.53-15.11,33.59-21.58,40.09-3.73,3.73-7.79,5.98-12.96,7.08-9.93,2.12-22.72.89-32.91.89l-55.33-.04c6.92-15.9,18.4-37.39,26.3-53.26l53.2-106.42,81.39-160.83c10.86-21.02,21.74-42.03,32.68-63.01,4.66-8.94,11.7-16.59,21.66-19.47Z"/>
  <path fill="#6366f1" d="M511.32,414.05c47.71-1.69,93.76.15,140.41-.7,25.11-1.16,40.33,1.6,51.03,26.81,19.12,38.52,39.61,76.78,58.21,114.48,1.64,5.09-5.72,2.33-9.89,3.04-18.94.02-35.99-.06-51.35.2-8.83.11-19.09.79-27.19-2.97-15.85-8.98-18.9-25.07-30.04-43.89-4.65-6.71-11.13-28.17-17.11-28.89-54.24-.39-110.5.43-164.82,0-4.63-.17-4.18-1.93-2.04-5.83,14.56-21.76,22.41-58.69,52.78-62.25Z"/>
</svg>
