<?xml version="1.0" encoding="UTF-8"?>
<svg id="Aevus_Primary" xmlns="http://www.w3.org/2000/svg" version="1.1" viewBox="0 0 1024 1024">
  <!-- ============================================================
       AEVUS PRIMARY LOGO — single source of truth (full lockup).
       Teal #06B6D4 (primary, always) + Indigo #6366F1 (secondary accent).
       Indigo replaces the old navy #0B1020, which was invisible on the
       dark platform background (#0B1020). Indigo contrasts and balances
       on BOTH the dark dashboard and light/print report backgrounds.
       Do NOT hand-edit copies elsewhere — reference this file. See
       docs/BRAND_LOGO_LOCKIN.md.
       ============================================================ -->
  <defs>
    <style>
      .teal { fill: #06b6d4; }
      .accent { fill: #6366f1; }
    </style>
    <mask id="eCut">
      <rect x="0" y="0" width="1024" height="1024" fill="#fff"/>
      <path d="M391.77,674.68c21.71-3.6,43.74,8.55,47.16,31.39l-34.8.05-48.88-.05c4.99-19.09,16.89-28.96,36.52-31.38Z" fill="#000"/>
    </mask>
  </defs>
  <path class="teal" d="M487.44,154.66c10.46-4.08,24.78-1.69,36.06-2.31,4.74-.26,12.18-.14,16.76.47,3.7.48,7.31,1.49,10.72,2.99,5.33,2.39,9.97,6.09,13.49,10.74,3.82,4.97,12.72,23.25,15.96,29.94,4.54,9.37,11.98,22.39,15.89,31.45,3.46,6.57,6.9,13.35,10.19,20.02,22.69,45.91,46.99,91.36,69.13,137.52l-54.16.03c-47.07.05-40.06,1.97-61.26-40.55l-24.62-49.05c-5.47-10.93-11.17-22.96-16.98-33.55l-99.6,199.06-24,48.21c-4.73,9.53-15.11,33.59-21.58,40.09-3.73,3.73-7.79,5.98-12.96,7.08-9.93,2.12-22.72.89-32.91.89l-55.33-.04c6.92-15.9,18.4-37.39,26.3-53.26l53.2-106.42,81.39-160.83c10.86-21.02,21.74-42.03,32.68-63.01,4.66-8.94,11.7-16.59,21.66-19.47Z"/>
  <path class="accent" d="M511.32,414.05c47.71-1.69,93.76.15,140.41-.7,25.11-1.16,40.33,1.6,51.03,26.81,19.12,38.52,39.61,76.78,58.21,114.48,1.64,5.09-5.72,2.33-9.89,3.04-18.94.02-35.99-.06-51.35.2-8.83.11-19.09.79-27.19-2.97-15.85-8.98-18.9-25.07-30.04-43.89-4.65-6.71-11.13-28.17-17.11-28.89-54.24-.39-110.5.43-164.82,0-4.63-.17-4.18-1.93-2.04-5.83,14.56-21.76,22.41-58.69,52.78-62.25Z"/>
  <path class="teal" mask="url(#eCut)" d="M391.29,654.21c3.73-.27,7.47-.35,11.2-.23,17.08.62,35.26,6.93,46.83,19.86,13.85,15.47,15.82,30.06,15.07,49.65-10.58.57-22.49.1-33.21.2-25.16.22-50.69-.46-75.82.07,5.47,22.59,21.59,32.66,44.49,33.59,12.7.52,23.23-2.39,34.01-9.07,2.14-1.4,5.13-3.82,7.25-5.43,4.7,5.37,9.22,10.56,14.16,15.71-25.13,25.93-78.25,26.4-105.5,4.1-12.03-9.74-19.67-23.88-21.2-39.29-3.82-39.95,24.58-65.82,62.72-69.16Z"/>
  <path class="teal" d="M204.43,618.12c26.4-.58,23.17-1.16,35.11,21.84l15.82,30.55c18.26,35.34,36.29,70.8,54.08,106.38-5.78.02-27.39.66-31.56-.71-3.27-3.1-18.88-36.08-21.99-42.39l-39.67-80.67-3.58-7.1-43.04,87.65c-6.88,14.14-13.91,29.36-21.1,43.26l-30.47-.04,52.9-106,15.67-31.23c2.72-5.41,5.56-11.52,8.79-16.59,2.17-3.4,5.27-4.25,9.04-4.93Z"/>
  <path class="teal" d="M746.49,655.1l26.17.11c.18,7.45.03,15.42.01,22.91l.1,30.32c.03,18.86,1.07,38.62-13.3,53.16-22.48,22.76-75.51,23.01-97.89.52-5.29-5.27-9.11-11.83-11.12-19.02-3.53-12.53-2.68-31.09-2.68-44.53l.07-43.38h26.69s-.01,45.22-.01,45.22c0,15.13-2.22,35.55,9.5,46.92,12.6,12.22,41.38,12.02,53.61-.74,11.22-11.7,8.88-31.35,8.88-46.36l-.02-45.12Z"/>
  <path class="teal" d="M852.86,654.21c18.53-1.72,39.25,2.13,55.61,11.14-3.24,6.3-7.01,12.67-10.54,18.83-11.15-5.92-21.44-9.44-34.22-9.81-10.5-.3-32.28.71-32.13,15.47.11,11.25,15.18,12.78,23.44,14.61,22.27,4.7,58.52,6.16,58.09,37.14-.44,31.93-34.9,37.08-59.92,36.85-17.86-1.27-37.89-4.14-52.48-15.48,3.05-5.71,7.85-13.2,11.38-18.73,15.79,10.68,31.45,14.05,50.45,13.36,5.98-.36,18.52-2.15,22.17-7.42,9.57-13.83-5.62-18.84-15.47-21.27-20.73-5.15-60.18-5.28-63.23-33.21-3.18-29.12,23.33-39.45,46.84-41.49Z"/>
  <path class="teal" d="M595.64,655.28c7.6-.33,20.23-.36,27.66.08-3.04,6.73-6.97,14.18-10.3,20.86-10.62,21.31-21.12,42.68-31.49,64.12-2.16,4.45-15.11,33.01-18.53,35.67-2.21,1.71-23.97,1.27-27.95-.27-2.83-3.11-56.47-113.24-58.77-120.56l28.76-.02c3.82,6.78,7.71,16.11,11.43,23.34,11.49,22.36,21.99,47.11,33.77,69.09,14.98-30.85,30.12-61.64,45.43-92.33Z"/>
</svg>
